PathFileType	4	(X/Y/Z)	F:\MotionCapture\20160217\3\Generated_files\EMG_Fprce_test05-Dynamic.trc
DataRate	CameraRate	NumFrames	NumMarkers	Units	OrigDataRate	OrigDataStartFrame	OrigNumFrames
120.00	120.00	       5	39	mm	120.00	71	       188
Frame#	Time	Top.Head			Front.Head			Rear.Head			R.Shoulder			R.Offset			R.Elbow			R.Wrist			L.Shoulder			L.Elbow			L.Wrist			R.ASIS			L.ASIS			V.Sacral			R.Thigh			R.Knee			R.Shank			R.Ankle			R.Heel			R.Toe			L.Thigh			L.Knee			L.Shank			L.Ankle			L.Heel			L.Toe			R1			R2			R3			R4			R5			R6			R7			L1			L2			L3			L4			L5			L6			L7			V_Mid_ASIS			V_Pelvis_Origin			V_R.Hip_JC			V_L.Hip_JC			V_R.Knee_JC			V_L.Knee_JC			V_R.Ankle_JC			V_L.Ankle_JC			V_Mid_Hip			V_Mid_Shoulder			V_R.Hand			V_L.Hand			V_R.Toe_Offset_Static			V_L.Toe_Offset_Static			V_R.Toe_Offset			V_L.Toe_Offset			
		X1	Y1	Z1	X2	Y2	Z2	X3	Y3	Z3	X4	Y4	Z4	X5	Y5	Z5	X6	Y6	Z6	X7	Y7	Z7	X8	Y8	Z8	X9	Y9	Z9	X10	Y10	Z10	X11	Y11	Z11	X12	Y12	Z12	X13	Y13	Z13	X14	Y14	Z14	X15	Y15	Z15	X16	Y16	Z16	X17	Y17	Z17	X18	Y18	Z18	X19	Y19	Z19	X20	Y20	Z20	X21	Y21	Z21	X22	Y22	Z22	X23	Y23	Z23	X24	Y24	Z24	X25	Y25	Z25	X26	Y26	Z26	X27	Y27	Z27	X28	Y28	Z28	X29	Y29	Z29	X30	Y30	Z30	X31	Y31	Z31	X32	Y32	Z32	X33	Y33	Z33	X34	Y34	Z34	X35	Y35	Z35	X36	Y36	Z36	X37	Y37	Z37	X38	Y38	Z38	X39	Y39	Z39	

71	0.583	1906.64478	77.01939	1664.86914	1850.92126	-16.78307	1578.73779				1995.19690	293.07407	1378.37024	2160.60229	28.16158	1259.08069	2156.75757	413.37451	1117.58899	2180.19580	462.42557	861.06622	1983.60034	-107.28234	1373.20520	1960.39160	-174.13994	1038.14441	1769.73352	-79.33785	891.27094	2001.42810	216.87459	904.12360	2025.22827	-69.12289	895.15234	2235.53906	100.35277	925.39209	1845.45178	151.83611	612.76953	1855.16870	192.14699	483.28424	1874.72607	110.70284	250.44858	1926.51648	184.81857	87.26881	2004.84253	135.40491	66.45786	1791.95605	138.68794	45.98103	2037.08777	-62.52599	562.92047	2179.98779	-119.86323	434.20175	2266.82007	-51.76665	314.91455	2518.10425	-107.74536	187.65656	2563.61206	-50.98936	231.69017	2462.27441	-80.82114	59.65195	1744.51489	103.61535	36.04985	1794.79529	99.69012	50.26349	1894.05359	83.50210	67.31357	1966.24866	97.79424	62.97788	1966.20593	170.65807	64.37860	1888.48340	186.05510	47.56634	1821.40857	191.39503	38.09108	2430.45142	-54.42831	40.99398	2445.53687	-47.36957	61.70488	2481.38696	-21.33850	144.42204	2533.69214	-21.38645	203.85680	2556.85303	-89.37750	202.85970	2529.16235	-111.00374	124.01660	2494.73584	-110.43221	72.27969																																																	1983.25940	160.14897	1601.20227	2534.49292	-135.77220	155.74327	1201.58582	37.68424	1458.57983	2715.66260	21.73315	310.64679	
72	0.592	1904.72717	77.34978	1665.42676	1849.37512	-16.59134	1579.22766				1993.81921	292.75821	1379.17834	2160.29614	28.37149	1260.50732	2154.71069	414.51434	1118.80823	2177.41919	465.35205	862.81848	1983.83459	-107.49461	1374.74451	1962.30164	-175.10074	1039.44910	1771.92139	-81.01651	891.06464	2001.97595	216.36603	905.41492	2026.53784	-69.81711	896.34924	2235.83179	100.26712	926.85944	1846.55920	151.62827	613.34143	1856.55762	192.39128	483.93314	1876.21509	111.56752	250.73738	1926.44031	185.18552	87.49544	2004.67334	136.17567	66.94540	1791.91223	138.83606	45.99554	2040.57910	-62.14031	563.80865	2183.43896	-119.38007	435.79099	2269.70459	-50.66679	316.22122	2520.13013	-107.76749	187.12007	2565.83984	-51.07229	230.97409	2462.84326	-80.97362	59.38290	1744.54797	103.60181	35.99360	1794.76782	99.83504	50.38985	1893.89636	84.01321	67.78675	1965.94275	98.26590	63.36951	1966.30298	172.82718	63.00126	1888.15308	186.47485	47.70374	1821.29126	191.65535	38.04110	2431.44629	-53.99846	41.06320	2446.14380	-47.41206	61.42770	2482.85889	-21.02849	144.15894	2536.34595	-21.17515	203.09517	2558.87891	-89.34121	202.02243	2530.78882	-110.77013	123.31957	2495.58081	-110.28934	71.77242																																																	1982.15515	160.06450	1602.39648	1199.57251	37.65309	1459.80872	2718.00708	22.50730	311.44180	1823.17871	59.06245	94.77786	
73	0.600	1903.08875	77.54683	1666.17676	1847.28882	-15.77002	1579.75940				1992.99316	292.37827	1380.47388	2160.11450	28.60162	1261.72388	2152.96240	415.22791	1119.76514	2173.68921	467.45419	863.85077	1984.24585	-107.68723	1375.89917	1963.91101	-175.92155	1040.79089	1774.68262	-83.18424	890.64813	2002.39758	216.02190	906.38385	2027.18677	-69.96376	896.88934	2236.29126	99.95245	928.30084	1847.57910	151.51373	614.27374	1857.46191	192.45551	484.68515	1876.35559	112.00872	251.46031	1926.25415	185.30116	87.76231	2004.28149	136.39850	67.24950	1791.86072	139.02782	46.02528	2042.82813	-62.32308	565.20398	2186.93726	-118.65805	437.10623	2272.47290	-50.40755	317.92746	2522.20483	-107.90433	186.38573	2568.53613	-50.22851	229.96118	2463.86060	-80.70686	58.94363	1744.57568	103.58588	35.98829	1794.74438	99.94165	50.52706	1893.79529	84.32873	68.08080	1965.75000	98.66287	63.86158	1965.85779	173.23445	63.06675	1887.90771	186.71138	47.53115	1821.11243	191.86530	38.06944	2432.17944	-53.62864	41.00325	2447.58667	-46.74590	61.43391	2484.96191	-20.69434	143.73404	2538.74927	-20.33157	202.15706	2561.02856	-89.17281	201.01419	2532.39624	-110.28981	122.24863	2496.75171	-109.97634	71.10863																																																	1981.28186	159.72617	1603.36487	1199.65137	37.52812	1460.29749	2720.01123	22.51412	311.41846	1822.39246	59.36140	94.96255	
74	0.608	1901.52087	77.55099	1666.88623	1846.38208	-15.33994	1579.89307				1992.03687	291.78284	1381.33105	2160.22192	28.72936	1262.96606	2151.72388	416.14917	1120.86096	2172.11548	469.59604	864.94507	1984.56335	-107.90919	1376.82166	1966.13171	-177.04352	1042.07593	1776.95752	-85.46690	890.40485	2003.23926	215.56332	907.19672	2028.64404	-70.62226	898.09119	2236.87842	100.13826	929.95880	1848.89539	151.29440	615.50525	1858.48389	192.58641	485.66611	1877.28442	112.56342	252.45670	1926.45886	185.57343	88.12613	2004.24890	136.81653	67.59089	1791.81201	139.17418	46.00724	2046.15991	-61.60574	565.84393	2190.67285	-118.61863	438.61734	2275.60791	-50.60045	318.71976	2524.77148	-107.71449	185.31767	2570.80713	-50.06880	228.30403	2465.71265	-80.30782	58.07235	1744.58411	103.54955	36.01476	1794.70410	100.07429	50.58187	1893.34155	84.87222	68.57046	1965.80176	98.85989	64.07883	1965.71545	173.54547	63.28788	1887.60071	186.85658	47.52299	1820.98645	192.10638	38.07578	2433.21216	-53.19170	40.66418	2448.47437	-46.94024	61.16209	2486.72656	-20.41802	143.34641	2540.96045	-20.19038	201.36465	2563.25708	-88.64621	199.77829	2534.36353	-109.56160	120.98649	2497.86670	-109.68659	70.46819																																																	1980.62524	159.06749	1604.32385	1199.26514	37.33829	1460.94495	2722.17700	22.47555	311.18112	1821.79431	59.45245	95.02870	
75	0.617	1900.40955	77.44057	1667.37146	1843.94153	-14.18221	1579.52344				1991.37146	291.49622	1382.08936	2160.42798	28.76119	1263.91504	2150.34521	417.17892	1121.74646	2170.11523	471.24545	865.94604	1984.89392	-108.41366	1377.97522	1967.89453	-177.86278	1042.94043	1779.17310	-87.73945	890.21191	2003.32141	215.00911	908.42914	2029.55042	-70.95490	898.64581	2237.35718	100.01291	931.17566	1850.36829	151.41891	615.52362	1860.11169	192.82381	486.43582	1877.92444	112.80853	252.69710	1926.84692	186.15553	88.60271	2004.24072	136.99319	67.89857	1791.76794	139.31682	45.98504	2049.70166	-61.43396	566.21869	2195.03613	-118.84998	440.17865	2279.31714	-49.65311	319.74771	2527.05713	-107.41808	184.52394	2573.41455	-49.93701	227.32416	2466.87134	-80.03799	57.76445	1744.59375	103.55052	36.01100	1794.73572	100.16823	50.66260	1893.34082	85.08847	68.81966	1965.75562	99.09612	64.26620	1965.51843	173.62300	63.46458	1887.40869	186.98833	47.49532	1820.93848	192.24413	38.03446	2433.84521	-52.91753	40.92123	2449.67944	-45.89824	60.88651	2488.89697	-19.98950	142.55321	2543.01221	-20.07701	200.18301	2565.44434	-88.33860	198.46288	2536.18774	-109.30376	120.06689	2499.51123	-109.16776	69.32724																																																	1980.44910	158.15704	1605.68298	1198.88684	37.00970	1461.56702	2724.80566	22.76011	311.51263	1823.42224	59.84168	94.50603	
